:SAMPLES-PER-SECOND 30
:FRAME-RANGE 1-4244
:FULLY-SPECIFIED
:DEGREES
2653
root  -36.3518 18.6098 60.8194 32.8139 41.8262 -5.19006
RightUpLeg  -86.9085 -0.918258 -10.6145
RightLeg  132.455 -13.0413 13.4978
RightFoot  -56.1012 2.01232 5.84478
RightToes  -1.33073e-015 0 -3.6325e-017
Spine  42.5903 -2.74559 3.34252
Spine1  -0.233094 2.91508 -15.9342
HEad  0.822154 3.767 -7.03513
LeftShoulder1  1.94359 -13.9028 -3.49063
LeftArm  -19.0808 -63.2416 -38.5956
LeftForeArm  42.2051 -1.23055 -7.32832
LeftHand  0.185017 6.10678 29.0683
RightShoulder  0.115552 9.94591 -8.55511
RightArm  -75.4367 83.3269 -3.30493
RightForeArm  40.3677 -4.16054 -8.25379
RightHand  0.296014 -6.38844 -33.1777
LeftUpLeg  -53.2115 3.1813 30.5832
LeftLeg  125.062 18.9074 -23.6225
LeftFoot  -29.2265 -2.05278 -14.1007
LeftToes  2.72522e-012 8.43823e-011 6.24977e-012
2654
root  -35.7312 18.7319 61.6876 35.69 42.1465 -4.18439
RightUpLeg  -85.8982 -0.915703 -10.3707
RightLeg  133.188 -12.2228 12.4234
RightFoot  -55.9866 1.99867 5.82601
RightToes  -1.33073e-015 0 -3.6325e-017
Spine  41.6947 -2.52148 3.37389
Spine1  -0.718905 3.04599 -16.4355
HEad  1.03121 4.15453 -6.28868
LeftShoulder1  2.34721 -14.6578 -5.48725
LeftArm  -16.3823 -61.8899 -39.2305
LeftForeArm  43.1886 -1.70369 -8.2311
LeftHand  0.128953 5.87381 29.6515
RightShoulder  0.241226 9.97509 -7.46921
RightArm  -56.7822 83.9606 15.0087
RightForeArm  41.5961 -4.39548 -6.79537
RightHand  0.0488857 -5.48692 -41.9126
LeftUpLeg  -52.9552 2.96361 29.0838
LeftLeg  122.996 17.4503 -23.6095
LeftFoot  -28.3331 -2.05313 -14.8124
LeftToes  2.72522e-012 8.43823e-011 6.24977e-012
2655
root  -35.1648 18.8012 62.5887 38.5596 42.6683 -3.51245
RightUpLeg  -85.2565 -0.666982 -9.88688
RightLeg  133.809 -11.5946 11.6009
RightFoot  -55.7533 2.00171 5.86285
RightToes  -1.33073e-015 0 -3.6325e-017
Spine  40.1227 -2.00797 3.08744
Spine1  -0.499316 3.26448 -15.9259
HEad  0.514479 4.55493 -5.68487
LeftShoulder1  2.62536 -15.2512 -6.69943
LeftArm  -14.6178 -60.113 -40.3202
LeftForeArm  44.6965 -2.61396 -8.68407
LeftHand  0.153109 5.95284 30.2109
RightShoulder  0.360586 9.42802 -6.3089
RightArm  -40.3844 83.4525 35.2287
RightForeArm  40.6574 -4.23391 -7.81074
RightHand  -1.55923 -1.96339 -50.0678
LeftUpLeg  -52.6129 3.51603 28.0912
LeftLeg  120.857 16.0701 -23.6465
LeftFoot  -28.1079 -2.25887 -16.3753
LeftToes  2.72522e-012 8.43823e-011 6.24977e-012
2656
root  -34.6207 18.8741 63.5018 40.6779 43.7261 -3.19611
RightUpLeg  -84.1536 -0.29477 -8.8286
RightLeg  134.454 -10.4726 10.348
RightFoot  -54.6394 1.66586 5.16254
RightToes  -1.33073e-015 0 -3.6325e-017
Spine  38.3611 -1.67407 1.71384
Spine1  0.426799 2.48829 -12.9261
HEad  -0.233213 6.71441 -6.18991
LeftShoulder1  2.77034 -13.5738 -9.24627
LeftArm  -13.456 -58.7858 -40.7499
LeftForeArm  46.1794 -3.1001 -8.96156
LeftHand  0.0916 5.71227 30.7741
RightShoulder  0.318301 8.46574 -6.46881
RightArm  -19.5029 82.3337 59.2872
RightForeArm  42.2199 -4.28688 -7.32985
RightHand  -1.75448 -1.63643 -51.223
LeftUpLeg  -51.8209 4.09057 27.6458
LeftLeg  118.852 14.2216 -22.8352
LeftFoot  -27.9608 -2.25313 -16.4758
LeftToes  2.72522e-012 8.43823e-011 6.24977e-012
2657
root  -34.1501 18.9148 64.4072 41.8169 45.0627 -3.02203
RightUpLeg  -82.4803 0.207467 -7.08448
RightLeg  135.26 -9.38487 9.11468
RightFoot  -53.4406 1.50903 4.89291
RightToes  -1.33073e-015 0 -3.6325e-017
Spine  36.7299 -1.20767 0.977869
Spine1  1.85761 2.23658 -10.4536
HEad  -0.0233421 7.10194 -6.48478
LeftShoulder1  2.92037 -13.9114 -9.85695
LeftArm  -13.1364 -56.5707 -40.9693
LeftForeArm  46.7938 -3.31363 -9.01962
LeftHand  0.115319 5.79571 31.0018
RightShoulder  0.365768 7.0492 -5.54048
RightArm  -1.30463 82.1567 77.5751
RightForeArm  41.8925 -4.54998 -5.89019
RightHand  -2.54588 -0.284599 -54.0639
LeftUpLeg  -50.062 4.48719 27.9928
LeftLeg  116.409 12.7288 -22.6818
LeftFoot  -28.03 -2.37036 -17.194
LeftToes  2.72522e-012 8.43823e-011 6.24977e-012
2658
root  -33.7127 18.9344 65.2818 42.348 46.7258 -2.69458
RightUpLeg  -80.2158 0.55695 -5.17468
RightLeg  136.114 -8.25141 7.87838
RightFoot  -52.0289 1.30513 4.49979
RightToes  -1.33073e-015 0 -3.6325e-017
Spine  35.5885 -1.07435 0.993297
Spine1  3.22299 1.96612 -8.6504
HEad  0.116023 6.63425 -6.12991
LeftShoulder1  3.05164 -14.5227 -10.025
LeftArm  -12.2178 -55.2341 -41.5457
LeftForeArm  47.0819 -1.60284 -9.14148
LeftHand  0.174598 6.0054 31.2964
RightShoulder  0.336741 6.10299 -5.5068
RightArm  9.29666 80.763 90.552
RightForeArm  41.8524 -4.54108 -5.94533
RightHand  -3.24457 0.770009 -56.5952
LeftUpLeg  -47.8536 4.26734 28.7976
LeftLeg  113.89 11.4509 -22.8088
LeftFoot  -28.3399 -2.51668 -17.8516
LeftToes  2.72522e-012 8.43823e-011 6.24977e-012
2659
root  -33.3035 18.9353 66.1475 42.3537 48.0951 -2.32898
RightUpLeg  -77.8983 1.10433 -3.40529
RightLeg  137.04 -7.01713 6.59609
RightFoot  -49.7502 0.966051 3.76711
RightToes  -1.33073e-015 0 -3.6325e-017
Spine  34.9002 -0.674864 0.779209
Spine1  4.19149 1.75314 -6.47978
HEad  0.561745 6.06179 -5.62595
LeftShoulder1  3.148 -14.9687 -10.1436
LeftArm  -11.273 -53.9176 -43.1421
LeftForeArm  47.664 0.500563 -9.13122
LeftHand  0.175009 6.00543 31.3545
RightShoulder  0.389619 5.70035 -4.65752
RightArm  15.9973 79.4092 98.0157
RightForeArm  42.2207 -4.6455 -5.31092
RightHand  -3.66939 1.25514 -58.8693
LeftUpLeg  -45.0472 3.95701 29.5809
LeftLeg  111.252 10.148 -22.9154
LeftFoot  -28.4597 -2.58455 -18.1723
LeftToes  2.72522e-012 8.43823e-011 6.24977e-012
